<?xml version="1.0" encoding="iso-8859-1"?>
<!-- Generator: Adobe Illustrator 16.0.0, SVG Export Plug-In . SVG Version: 6.00 Build 0)  -->
<!DOCTYPE svg PUBLIC "-//W3C//DTD SVG 1.1//EN" "http://www.w3.org/Graphics/SVG/1.1/DTD/svg11.dtd">
<svg version="1.1" id="Capa_1" xmlns="http://www.w3.org/2000/svg" xmlns:xlink="http://www.w3.org/1999/xlink" x="0px" y="0px"
	 width="435.95px" height="435.95px" viewBox="0 0 435.95 435.95" style="enable-background:new 0 0 435.95 435.95;"
	 xml:space="preserve">
<g>
	<g>
		<path d="M99.903,273.967c-31.432,0-65.267,8.219-65.267,26.256c0,18.025,33.835,26.245,65.267,26.245
			c31.444,0,65.269-8.22,65.269-26.245C165.172,282.186,131.348,273.967,99.903,273.967z M99.903,312.253
			c-32.819,0-50.061-8.824-51.073-11.897c1.012-3.358,18.262-12.175,51.073-12.175c32.833,0,50.069,8.816,51.087,11.89
			C149.966,303.429,132.728,312.253,99.903,312.253z"/>
		<path d="M99.903,290.842c15.733,0,28.481,4.191,28.481,9.373c0,5.178-12.748,9.369-28.481,9.369
			c-15.727,0-28.48-4.191-28.48-9.369C71.423,295.033,84.176,290.842,99.903,290.842z"/>
		<path d="M269.013,126.657l-62.634,168.384l-7.905-2.845l70.539-187.748c-100.346-42.629-176.722,0-176.722,0L8.809,281.236
			C3.142,286.938,0,293.346,0,300.223c0,25.508,42.95,44.728,99.903,44.728c11.251,0,21.943-0.75,31.873-2.156
			c26.659,0.722,66.602-0.95,123.903-9.438c57.724-8.552,95.024,17.092,95.024,17.092s75.476-149.197,85.246-218.463
			C435.954,131.977,332.062,107.115,269.013,126.657z M99.903,330.743c-49.049,0-85.695-16.113-85.695-30.528
			c0-14.41,36.654-30.541,85.695-30.541c49.051,0,85.703,16.131,85.703,30.541C185.598,314.63,148.954,330.743,99.903,330.743z"/>
	</g>
</g>
<g>
</g>
<g>
</g>
<g>
</g>
<g>
</g>
<g>
</g>
<g>
</g>
<g>
</g>
<g>
</g>
<g>
</g>
<g>
</g>
<g>
</g>
<g>
</g>
<g>
</g>
<g>
</g>
<g>
</g>
</svg>
